<svg version="1" xmlns="http://www.w3.org/2000/svg" width="933.333" height="933.333" viewBox="0 0 700.000000 700.000000"><path d="M103.8 83.9c-.2.5-3.9 4.7-8.3 9.3-8.9 9.5-11.2 12.1-17 19.3-2.2 2.7-4.2 5.2-4.5 5.5-.3.3-3.5 4.5-7.1 9.5-22.3 30.9-38.7 63.5-50.3 99.4-4.1 12.7-9.8 35.6-11.1 44.6-.4 2.2-.8 4.7-1.1 5.6-.2.9-.7 3.8-.9 6.5-.3 2.7-.7 6.5-1 8.4-1.4 9.9-2 21.6-2 41 0 21.4.9 36.9 2.9 49 2 12.5 2.9 17.2 4.2 23.4.9 3.9 1.8 8.2 2 9.6 1.8 9.1 9.6 33.3 15.5 48.3 3.9 9.8 16.3 35.4 21.6 44.7 8.6 15.1 27.4 41.5 36.4 51.3l4.4 4.8 4-3.8c2.2-2.1 8.3-7.6 13.5-12.3 5.2-4.7 9.8-8.9 10.2-9.5.8-1.1.9-.9-8.6-12.8-55.9-70-78.6-163.1-61.5-251.2 9.1-46.5 28.9-90.7 57.7-128.8l7.4-9.9 3.2 2.9c1.7 1.6 7.6 6.9 13.1 11.9 12.9 11.5 12.5 11.1 12.5 12 0 .4-1.5 2.5-3.3 4.8-8.6 10.6-19.8 28.3-27.9 44.1-12.3 23.9-23.1 58.3-26.3 83.5-2.1 17.2-2.7 46.8-1.2 64.5.8 9.7 1 11 3.2 22.5.8 4.1 1.7 8.9 2 10.6.9 5.6 7.6 27.6 11 36.5 8 20.9 18.2 40.3 30.3 57.9 5.4 7.8 18.3 24 19.1 24 .3 0 2.4-1.7 4.6-3.8 2.2-2.1 8.3-7.5 13.5-12.2 5.2-4.6 9.7-8.6 10-8.9.3-.3 4.3-4 9-8.1s9.2-8.1 10.1-9c.8-.8 4.7-4.3 8.5-7.6 3.8-3.4 8.1-7.3 9.5-8.5 12.2-11.2 19.3-17.5 20.5-18.2 2.2-1.3 1.7-3.2-2.4-8.4-6.9-8.6-14.8-22.1-18.9-31.8-3.3-8-8.3-22.5-7.7-22.5.3 0 0-.8-.5-1.8s-1.2-3.8-1.6-6.2c-.4-2.5-.8-4.7-1-5-.7-1.1-1.8-14.5-1.9-23.6-.5-23.1 4.8-47.3 14.8-67.9 5-10.3 14.3-25.5 15.6-25.5.5 0 3 2.2 14.6 12.6 3.9 3.5 8.2 7.2 9.5 8.2l2.3 2-2.6 3.9c-9.5 14.3-16.5 34.1-18.4 51.8-.6 5.3-.5 20.8.1 26 4.6 39 29.5 74.3 64.5 91.4 10.8 5.3 14 6.4 22.8 8.5l6.3 1.4-.5-3.6c-.5-3.3-1-9.8-2.2-27.7-.1-2.8-.3-5.3-.3-5.6-.1-.4-2.5-1.7-5.3-2.9-24.9-10.5-44.3-34.2-48.4-59-.3-1.4-.7-3.2-1-4-1.1-3-.4-21.8 1-28.5 4-18.9 17.5-39.8 31.8-49.3 2.1-1.3 3.8-2.8 3.8-3.2 0-.4-6-6.1-13.2-12.6-7.3-6.5-15.1-13.5-17.3-15.5-2.2-2-11.2-10-20-17.9-8.8-7.8-16.7-15-17.5-15.9-.9-.9-4.6-4.3-8.3-7.5l-6.8-5.9-9.8 10.1c-28.2 29-44.5 61-52.6 103.1-2 10.5-2.8 41-1.3 53.6 2.3 20.5 9.3 43.6 19.2 64.1l3.3 6.7-3.6 3.1c-2 1.7-4.1 3.5-4.7 4.1-20.9 19.1-21.1 19.2-22.4 17.9-3.3-3.7-15.8-30.8-20.6-44.8-3-8.7-7.9-29.1-8.9-36.6-.4-3-.9-6.4-1.2-7.5-.7-3.4-1.7-20.5-1.7-29 0-61.3 24.5-120.7 67.6-163.8 3.7-3.7 6.8-7.1 6.7-7.5 0-.4-2.6-2.9-5.7-5.6-4.6-4-17.5-15.5-22.6-20.1-.6-.6-5.6-5-11.1-9.9s-10.7-9.6-11.6-10.5c-.9-.9-3.1-2.9-5-4.6-3-2.5-16-14.2-25.6-22.9-4.7-4.2-7.1-5.7-7.5-4.7zM586.7 90.4c-3.7 3.4-11.3 10.4-17 15.3-5.6 5-11.1 9.9-12.2 11-4.5 4.1-20.2 18.1-23.9 21.4-2.2 1.8-6.4 5.7-9.5 8.5-3.1 2.8-7.9 7.1-10.8 9.5-2.8 2.4-5.4 5-5.7 5.7-.3.7 2.6 4.4 6.7 8.5 7.3 7.4 9 9.3 16.3 18.2 14.8 18.1 29.5 44.5 37.4 66.9 3.5 10.1 8.5 28.8 9.5 35.6.4 2.5.9 5.4 1.2 6.5 1.3 6.3 2.6 24.2 2.7 35.5 0 9.4-1.1 28.7-1.7 29.8-.3.4-.8 3.1-1.1 6.1-2.5 21.1-13 52.2-24.8 74.1-5.6 10.2-5.6 10.2-7.7 8.2-1.9-1.9-6.1-5.6-19.2-17.5l-8.7-7.7 3.4-6.6c9.5-18.6 15.8-39.4 18.9-62.4 1.5-10.6 1.6-37 .3-45.8-.4-3.1-1.1-7.2-1.3-9-2.3-15.2-8.4-35-15.6-50.2-9.8-20.7-20.8-36.4-36.8-53l-9.8-10.2-3.4 2.9c-1.9 1.5-4.8 4.1-6.5 5.8-1.8 1.6-4.5 4.1-6 5.4-2.7 2.2-20.2 17.9-21.4 19.1-.3.3-4.5 4.1-9.4 8.5-5 4.4-9.7 8.7-10.6 9.5-.9.8-3.4 3.1-5.6 5-16.2 14.5-20.4 18.4-20.4 19 0 .4 1.7 1.9 3.8 3.2 14.3 9.6 29.4 32.9 31.6 48.9.3 2.2.8 4.4 1.1 4.9.8 1.2.7 19.6 0 24.5-4.1 26.9-23.7 51.7-49.2 62.5-2.9 1.2-5.3 2.5-5.4 2.9 0 .3-.2 3.3-.4 6.6-.5 8.9-1.6 22.5-2.1 26.8-.4 3.4-.2 3.8 1.5 3.2 1.1-.3 3-.8 4.2-1 10.1-2 28.9-10.7 39.2-18.3 25.2-18.5 43.3-47.5 47.2-76 .3-2 .8-4.7 1.1-6 .5-2.7.6-22.9 0-25.7-.5-2.7-1.7-11.9-1.6-12.5 0-.3-1.5-5-3.3-10.5-3.8-11.2-6.7-17.4-12.1-26.4-3.7-6.1-3.8-6.2-1.9-7.9 1.1-.9 5.3-4.6 9.2-8.2 13.5-12.1 14.6-13 15.2-13 1.2 0 10.2 14.8 14.9 24.5 6.8 14.1 10.8 25.8 12.6 37 .3 2.2.8 4.3 1 4.7.8 1.3 1.8 15.8 1.8 25.3-.1 34.6-11 66.2-32.1 93.5l-4.3 5.5 2.4 2c3.2 2.8 16.9 15.1 23 20.6 2.8 2.5 12.3 11.1 21.1 18.9 22.6 20.2 31.1 27.9 36.4 32.7 2.5 2.4 4.9 4.3 5.3 4.3.8 0 12.9-15.3 19-24 25.5-36.7 42.7-83.9 46.6-128 .9-11 .8-46.8-.2-54.5-.4-3.3-1-7.7-1.2-9.7-1.3-12.6-9.7-45.5-14.4-56.3-.5-1.1-2.5-6-4.5-10.8-7.2-17.8-19.8-39.9-31.9-56-3.6-4.8-6.6-8.9-6.6-9.2 0-.5 3.6-4.1 9.2-9 1.8-1.7 7-6.3 11.5-10.3l8.2-7.3 7.3 9.8c6.5 8.6 10.4 14.4 19.3 28.3 3.9 6 12.1 22 17 33 4.2 9.4 13.2 33.1 14 37 .2.8 1.5 5.8 2.9 11 2.7 10.1 6.2 27.4 7.2 35.5.3 2.8.7 6.3.9 8 2.4 17.8 2.4 51.2 0 69.5-1.5 12.2-2.2 16.6-3.5 23.5-.6 2.7-1.2 6.1-1.5 7.4-1.2 6.5-6 23.4-9.6 34.3-12.1 35.9-32.5 71.9-57.5 101.2-1.3 1.5-2.4 3.1-2.3 3.5 0 .3 2.6 2.8 5.7 5.5 6.3 5.4 13.7 12.1 19.4 17.4l3.7 3.5 2-2.4c1-1.3 2.9-3.5 4.1-4.9 8.4-9.4 24.8-33 34.2-49 18.8-32.2 35.4-77.3 41.2-112.5 1.5-8.9 2.6-16.6 3.1-21.5.4-3 .8-6.9 1.1-8.5.9-5.5 1.2-48.8.4-58.5-1.8-21.6-4.4-37.7-9.1-56.7-14.6-59.9-45-115.3-86.8-158.6-4.1-4.2-7.9-7.7-8.5-7.7-.6 0-4.1 2.9-7.9 6.4z"/><path d="M339.5 289.2c-9 2.7-19 8.6-22.8 13.5-1 1.3-2.4 2.9-3 3.6-4.3 4.5-8.7 17.2-8.9 25.8-.5 16.2 8.3 32.2 21.8 40 3 1.7 5.4 3.4 5.5 3.7 0 .4.2 1.4.4 2.2.1.8.5 6 .9 11.5.3 5.5.8 12.2 1.1 15 .2 2.7.7 9.3 1.1 14.5.3 5.2.8 11.5.9 14 .2 2.5.6 8.3.9 13 .3 4.7.8 11.4 1.1 15 1.2 13.1 1.4 16.7 2 26.5.4 5.5.8 11.6 1 13.5.2 1.9.7 8.2 1.1 14 .3 5.8.8 11.8.9 13.5.1 1.6.5 7.3.9 12.5s.9 11.7 1.1 14.5c.2 2.7.7 8.8 1 13.5 1 13.5 1.3 17.9 2.1 28 .4 5.2.8 10.3.8 11.2 0 1 .4 1.8.8 1.8s.9-2.6.9-5.8c.1-3.1.3-7.1.4-8.7.2-1.7.6-7.3.9-12.5.4-5.2.9-11.5 1.1-14 .5-6 1.5-19.8 2-28.5.3-3.8.7-9.9 1-13.5.3-3.6.7-9.2 1-12.5.2-3.3.7-9.4 1-13.5.6-7.4.8-11.2 2-28 .3-4.7.8-10.9 1-13.8.3-2.8.7-8.9 1-13.5.3-4.5.8-10.5 1-13.2.2-2.8.7-9.1 1-14 .4-5 .8-11 1-13.5.4-4.3 1.6-21.9 1.9-27 .2-1.8 1.5-3.2 5.1-5.3 21-12.2 28.7-38.7 17.7-60.3-5.1-10-17.5-19.9-28.4-22.8-6-1.5-17.7-1.7-22.3-.4z"/></svg>